<mxfile host="65bd71144e">
    <diagram id="CEXoIEsdTjvYZMftKgIe" name="Page-1">
        <mxGraphModel dx="2318" dy="712" grid="1" gridSize="10" guides="1" tooltips="1" connect="1" arrows="1" fold="1" page="1" pageScale="1" pageWidth="827" pageHeight="1169" background="none" math="0" shadow="0">
            <root>
                <mxCell id="0"/>
                <mxCell id="1" parent="0"/>
                <mxCell id="3" value="&lt;h1&gt;&lt;font style=&quot;font-size: 23px&quot;&gt;Art Emporium&lt;/font&gt;&lt;/h1&gt;" style="text;html=1;strokeColor=none;fillColor=none;spacing=5;spacingTop=-20;whiteSpace=wrap;overflow=hidden;rounded=0;align=center;" parent="1" vertex="1">
                    <mxGeometry x="662.5" y="30" width="190" height="50" as="geometry"/>
                </mxCell>
                <mxCell id="6" value="&lt;font style=&quot;font-size: 14px&quot; color=&quot;#000000&quot;&gt;Logar no sistema&lt;/font&gt;" style="ellipse;whiteSpace=wrap;html=1;fontSize=18;fillColor=#b1ddf0;strokeColor=#10739e;" parent="1" vertex="1">
                    <mxGeometry x="280" y="280" width="140" height="60" as="geometry"/>
                </mxCell>
                <mxCell id="18" value="&amp;lt;&amp;lt;estender&amp;gt;&amp;gt;" style="edgeStyle=none;html=1;exitX=0.5;exitY=1;exitDx=0;exitDy=0;fontSize=15;sourcePerimeterSpacing=0;strokeColor=default;dashed=1;endArrow=open;endFill=0;" parent="1" source="15" target="6" edge="1">
                    <mxGeometry relative="1" as="geometry"/>
                </mxCell>
                <mxCell id="15" value="&lt;font color=&quot;#000000&quot; style=&quot;font-size: 14px&quot;&gt;Cadastrar usuário&lt;/font&gt;" style="ellipse;whiteSpace=wrap;html=1;fontSize=15;fillColor=#b0e3e6;strokeColor=#0e8088;dashed=1;" parent="1" vertex="1">
                    <mxGeometry x="275" y="150" width="150" height="60" as="geometry"/>
                </mxCell>
                <mxCell id="78" style="edgeStyle=none;html=1;exitX=1;exitY=0.3333333333333333;exitDx=0;exitDy=0;exitPerimeter=0;entryX=0;entryY=0.5;entryDx=0;entryDy=0;fontSize=14;" parent="1" source="20" target="15" edge="1">
                    <mxGeometry relative="1" as="geometry"/>
                </mxCell>
                <mxCell id="80" style="edgeStyle=none;html=1;exitX=1;exitY=0.3333333333333333;exitDx=0;exitDy=0;exitPerimeter=0;entryX=0;entryY=0.5;entryDx=0;entryDy=0;fontSize=14;" parent="1" source="20" target="6" edge="1">
                    <mxGeometry relative="1" as="geometry"/>
                </mxCell>
                <mxCell id="82" style="edgeStyle=none;html=1;exitX=1;exitY=0.3333333333333333;exitDx=0;exitDy=0;exitPerimeter=0;entryX=0;entryY=0.5;entryDx=0;entryDy=0;fontSize=14;" parent="1" source="20" target="23" edge="1">
                    <mxGeometry relative="1" as="geometry"/>
                </mxCell>
                <mxCell id="84" style="edgeStyle=none;html=1;exitX=1;exitY=0.3333333333333333;exitDx=0;exitDy=0;exitPerimeter=0;entryX=0;entryY=0.5;entryDx=0;entryDy=0;fontSize=14;" parent="1" source="20" target="32" edge="1">
                    <mxGeometry relative="1" as="geometry"/>
                </mxCell>
                <mxCell id="94" style="edgeStyle=none;html=1;exitX=1;exitY=0.3333333333333333;exitDx=0;exitDy=0;exitPerimeter=0;entryX=0;entryY=0.5;entryDx=0;entryDy=0;fontSize=14;" parent="1" source="20" target="62" edge="1">
                    <mxGeometry relative="1" as="geometry"/>
                </mxCell>
                <mxCell id="135" style="edgeStyle=none;html=1;exitX=1;exitY=0.3333333333333333;exitDx=0;exitDy=0;exitPerimeter=0;entryX=0;entryY=0.5;entryDx=0;entryDy=0;fontSize=14;endArrow=classic;endFill=1;strokeWidth=1;" parent="1" source="20" target="30" edge="1">
                    <mxGeometry relative="1" as="geometry"/>
                </mxCell>
                <mxCell id="144" style="edgeStyle=none;html=1;exitX=1;exitY=0.3333333333333333;exitDx=0;exitDy=0;exitPerimeter=0;entryX=0;entryY=0.5;entryDx=0;entryDy=0;fontSize=14;endArrow=classic;endFill=1;strokeWidth=1;" parent="1" source="20" target="147" edge="1">
                    <mxGeometry relative="1" as="geometry">
                        <Array as="points"/>
                    </mxGeometry>
                </mxCell>
                <mxCell id="20" value="" style="shape=umlActor;verticalLabelPosition=bottom;verticalAlign=top;html=1;outlineConnect=0;fontSize=18;fillColor=#b0e3e6;strokeColor=#0e8088;" parent="1" vertex="1">
                    <mxGeometry x="-110" y="580" width="60" height="110" as="geometry"/>
                </mxCell>
                <mxCell id="23" value="&lt;font color=&quot;#000000&quot; style=&quot;font-size: 14px&quot;&gt;&lt;span style=&quot;line-height: 1.2&quot;&gt;Acessar página&lt;br&gt;de portfólio dos designers&lt;/span&gt;&lt;/font&gt;" style="ellipse;whiteSpace=wrap;html=1;fontSize=18;fillColor=#b1ddf0;strokeColor=#10739e;" parent="1" vertex="1">
                    <mxGeometry x="280" y="500" width="145" height="90" as="geometry"/>
                </mxCell>
                <mxCell id="25" value="&lt;font color=&quot;#000000&quot; style=&quot;font-size: 14px&quot;&gt;Redefinir senha&lt;/font&gt;" style="ellipse;whiteSpace=wrap;html=1;fontSize=18;fillColor=#b1ddf0;strokeColor=#10739e;" parent="1" vertex="1">
                    <mxGeometry x="640" y="160" width="140" height="60" as="geometry"/>
                </mxCell>
                <mxCell id="30" value="&lt;font color=&quot;#000000&quot; style=&quot;font-size: 14px&quot;&gt;Exclusão de usuário&lt;/font&gt;" style="ellipse;whiteSpace=wrap;html=1;fontSize=18;fillColor=#b1ddf0;strokeColor=#10739e;" parent="1" vertex="1">
                    <mxGeometry x="200" y="1050" width="140" height="60" as="geometry"/>
                </mxCell>
                <mxCell id="111" value="&amp;lt;&amp;lt;estender&amp;gt;&amp;gt;" style="edgeStyle=none;html=1;exitX=1;exitY=0.5;exitDx=0;exitDy=0;entryX=0;entryY=1;entryDx=0;entryDy=0;dashed=1;fontSize=14;endArrow=open;endFill=0;strokeWidth=1;" parent="1" source="32" target="109" edge="1">
                    <mxGeometry relative="1" as="geometry">
                        <Array as="points"/>
                    </mxGeometry>
                </mxCell>
                <mxCell id="32" value="&lt;font color=&quot;#000000&quot;&gt;&lt;span style=&quot;font-size: 14px&quot;&gt;Solicitar serviço&lt;/span&gt;&lt;/font&gt;" style="ellipse;whiteSpace=wrap;html=1;fontSize=18;fillColor=#b1ddf0;strokeColor=#10739e;" parent="1" vertex="1">
                    <mxGeometry x="240" y="760" width="150" height="90" as="geometry"/>
                </mxCell>
                <mxCell id="103" value="&amp;lt;&amp;lt;estender&amp;gt;&amp;gt;" style="edgeStyle=none;html=1;exitX=0;exitY=0.5;exitDx=0;exitDy=0;entryX=1;entryY=0;entryDx=0;entryDy=0;dashed=1;fontSize=14;endArrow=open;endFill=0;strokeWidth=1;" parent="1" source="25" target="6" edge="1">
                    <mxGeometry relative="1" as="geometry">
                        <Array as="points">
                            <mxPoint x="510" y="230"/>
                        </Array>
                        <mxPoint x="640" y="190" as="sourcePoint"/>
                    </mxGeometry>
                </mxCell>
                <mxCell id="62" value="&lt;font color=&quot;#000000&quot;&gt;&lt;span style=&quot;font-size: 14px&quot;&gt;Criar postagens&lt;/span&gt;&lt;/font&gt;" style="ellipse;whiteSpace=wrap;html=1;fontSize=18;fillColor=#b1ddf0;strokeColor=#10739e;" parent="1" vertex="1">
                    <mxGeometry x="260" y="620" width="150" height="90" as="geometry"/>
                </mxCell>
                <mxCell id="125" value="&amp;lt;&amp;lt;incluir&amp;gt;&amp;gt;" style="edgeStyle=none;html=1;exitX=0;exitY=1;exitDx=0;exitDy=0;entryX=1;entryY=0.5;entryDx=0;entryDy=0;dashed=1;fontSize=14;endArrow=open;endFill=0;strokeWidth=1;" parent="1" source="91" target="93" edge="1">
                    <mxGeometry relative="1" as="geometry"/>
                </mxCell>
                <mxCell id="91" value="&lt;font color=&quot;#000000&quot;&gt;&lt;span style=&quot;font-size: 14px&quot;&gt;Escolher um dos orçamentos feitos por um do designers&lt;/span&gt;&lt;/font&gt;" style="ellipse;whiteSpace=wrap;html=1;fontSize=18;fillColor=#b1ddf0;strokeColor=#10739e;dashed=1;rotation=0;" parent="1" vertex="1">
                    <mxGeometry x="1290" y="560" width="155" height="100" as="geometry"/>
                </mxCell>
                <mxCell id="92" value="&lt;font color=&quot;#000000&quot;&gt;&lt;span style=&quot;font-size: 14px&quot;&gt;Confirmar o pagamento&lt;/span&gt;&lt;/font&gt;" style="ellipse;whiteSpace=wrap;html=1;fontSize=18;fillColor=#b1ddf0;strokeColor=#10739e;" parent="1" vertex="1">
                    <mxGeometry x="730" y="770" width="155" height="100" as="geometry"/>
                </mxCell>
                <mxCell id="126" value="&amp;lt;&amp;lt;incluir&amp;gt;&amp;gt;" style="edgeStyle=none;html=1;exitX=0;exitY=0.5;exitDx=0;exitDy=0;entryX=1;entryY=0.5;entryDx=0;entryDy=0;dashed=1;fontSize=14;endArrow=open;endFill=0;strokeWidth=1;" parent="1" source="93" target="92" edge="1">
                    <mxGeometry relative="1" as="geometry"/>
                </mxCell>
                <mxCell id="93" value="&lt;font color=&quot;#000000&quot;&gt;&lt;span style=&quot;font-size: 14px&quot;&gt;Confimar o envio do produto&lt;/span&gt;&lt;/font&gt;" style="ellipse;whiteSpace=wrap;html=1;fontSize=18;fillColor=#b1ddf0;strokeColor=#10739e;rotation=-5;" parent="1" vertex="1">
                    <mxGeometry x="1135" y="740" width="155" height="100" as="geometry"/>
                </mxCell>
                <mxCell id="109" value="&lt;font color=&quot;#000000&quot;&gt;&lt;span style=&quot;font-size: 14px&quot;&gt;Receber notificação de quem e quantos designers aceitaram o serviço&lt;/span&gt;&lt;/font&gt;" style="ellipse;whiteSpace=wrap;html=1;fontSize=18;fillColor=#b1ddf0;strokeColor=#10739e;" parent="1" vertex="1">
                    <mxGeometry x="620" y="520" width="170" height="110" as="geometry"/>
                </mxCell>
                <mxCell id="124" value="&amp;lt;&amp;lt;incluir&amp;gt;&amp;gt;" style="edgeStyle=none;html=1;exitX=1;exitY=0.5;exitDx=0;exitDy=0;entryX=0.5;entryY=0;entryDx=0;entryDy=0;fontSize=14;endArrow=open;endFill=0;strokeWidth=1;dashed=1;" parent="1" source="110" target="91" edge="1">
                    <mxGeometry relative="1" as="geometry"/>
                </mxCell>
                <mxCell id="110" value="&lt;font color=&quot;#000000&quot;&gt;&lt;span style=&quot;font-size: 14px&quot;&gt;Receber orçamentos dos designers&amp;nbsp;&lt;/span&gt;&lt;/font&gt;" style="ellipse;whiteSpace=wrap;html=1;fontSize=18;fillColor=#b1ddf0;strokeColor=#10739e;" parent="1" vertex="1">
                    <mxGeometry x="910" y="530" width="180" height="80" as="geometry"/>
                </mxCell>
                <mxCell id="112" value="&amp;lt;&amp;lt;incluir&amp;gt;&amp;gt;" style="edgeStyle=none;html=1;dashed=1;fontSize=14;endArrow=open;endFill=0;strokeWidth=1;exitX=1;exitY=0;exitDx=0;exitDy=0;entryX=0;entryY=0.5;entryDx=0;entryDy=0;" parent="1" source="109" target="110" edge="1">
                    <mxGeometry relative="1" as="geometry">
                        <mxPoint x="660" y="554" as="sourcePoint"/>
                        <mxPoint x="760" y="554" as="targetPoint"/>
                    </mxGeometry>
                </mxCell>
                <mxCell id="147" value="&lt;font color=&quot;#000000&quot;&gt;Configurar seu perfil&lt;br&gt;&lt;br&gt;&lt;br&gt;&lt;/font&gt;" style="shape=lineEllipse;perimeter=ellipsePerimeter;whiteSpace=wrap;html=1;backgroundOutline=1;fontSize=14;strokeColor=#0e8088;fillColor=#b0e3e6;" parent="1" vertex="1">
                    <mxGeometry x="280" y="380" width="150" height="90" as="geometry"/>
                </mxCell>
                <mxCell id="161" value="&lt;font style=&quot;font-size: 14px&quot;&gt;Usuário&lt;/font&gt;" style="text;html=1;align=center;verticalAlign=middle;resizable=0;points=[];autosize=1;strokeColor=none;fillColor=none;" vertex="1" parent="1">
                    <mxGeometry x="-110" y="720" width="60" height="20" as="geometry"/>
                </mxCell>
            </root>
        </mxGraphModel>
    </diagram>
</mxfile>